<svg width="16" height="16" viewBox="0 0 16 16" fill="none" xmlns="http://www.w3.org/2000/svg">
<path fill-rule="evenodd" clip-rule="evenodd" d="M0.492553 15.3931C0.147718 15.0496 0.147718 14.4926 0.492553 14.149L14.2289 0.464325C14.5737 0.120786 15.1328 0.120786 15.4777 0.464325C15.8225 0.807864 15.8225 1.36485 15.4777 1.70839L1.74131 15.3931C1.39648 15.7366 0.837389 15.7366 0.492553 15.3931Z" fill="black"/>
<path fill-rule="evenodd" clip-rule="evenodd" d="M0.492553 0.464325C0.837389 0.120786 1.39648 0.120786 1.74131 0.464325L15.4777 14.149C15.8225 14.4926 15.8225 15.0496 15.4777 15.3931C15.1328 15.7366 14.5737 15.7366 14.2289 15.3931L0.492553 1.70839C0.147718 1.36485 0.147718 0.807864 0.492553 0.464325Z" fill="black"/>
</svg>
