<svg width="12" height="12" viewBox="0 0 12 12" fill="none" xmlns="http://www.w3.org/2000/svg">
<g id="Group">
<g id="Group_2">
<g id="Group_3">
<path id="Vector" d="M5.01825 8.18169H0.436799V0.982264H9.59971V4.58198C9.59971 4.70254 9.69728 4.80016 9.81789 4.80016C9.93851 4.80016 10.0361 4.70259 10.0361 4.58198V0.764081C10.0361 0.643522 9.93851 0.545898 9.81789 0.545898H0.218671C0.0980573 0.545953 0.000488281 0.643522 0.000488281 0.764081V8.39982C0.000488281 8.52038 0.0980573 8.618 0.218671 8.618H5.01831C5.13887 8.618 5.23649 8.52044 5.23649 8.39982C5.23644 8.27926 5.13887 8.18169 5.01825 8.18169Z" fill="#212121"/>
<path id="Vector_2" d="M5.01765 7.30902H1.30887V5.98128L2.42162 4.86853L3.90677 5.95785C3.99048 6.01939 4.1062 6.01323 4.18287 5.94294L6.51022 3.81815L7.45809 5.14501C7.52799 5.24302 7.66433 5.26579 7.76234 5.19572C7.86035 5.12582 7.88312 4.98947 7.81305 4.89147L6.72225 3.3643C6.68606 3.31337 6.62979 3.28059 6.56781 3.27415C6.50648 3.26755 6.44379 3.28779 6.39781 3.32998L4.02078 5.50025L2.52881 4.40598C2.44191 4.3423 2.32152 4.35143 2.24546 4.42771L1.30887 5.3643V1.85494H8.72648V4.58198C8.72648 4.70254 8.82405 4.80017 8.94467 4.80017C9.06522 4.80017 9.16285 4.7026 9.16285 4.58198V1.63676C9.16285 1.5162 9.06528 1.41858 8.94467 1.41858H1.09074C0.970183 1.41858 0.872559 1.51615 0.872559 1.63676V7.5272C0.872559 7.64776 0.970128 7.74539 1.09074 7.74539H5.0177C5.13826 7.74539 5.23589 7.64782 5.23589 7.5272C5.23583 7.4067 5.13826 7.30902 5.01765 7.30902Z" fill="#212121"/>
<path id="Vector_3" d="M8.94491 5.34552C7.26077 5.34552 5.89062 6.71567 5.89062 8.39981C5.89062 10.0839 7.26077 11.4541 8.94491 11.4541C10.629 11.4541 11.9992 10.0839 11.9992 8.39981C11.9992 6.71567 10.6291 5.34552 8.94491 5.34552ZM8.94491 11.0179C7.50128 11.0179 6.32694 9.84354 6.32694 8.39992C6.32694 6.95629 7.50128 5.78194 8.94491 5.78194C10.3885 5.78194 11.5629 6.95629 11.5629 8.39992C11.5629 9.84354 10.3886 11.0179 8.94491 11.0179Z" fill="#212121"/>
<path id="Vector_4" d="M9.16319 6.65454H8.72688V8.18171H7.19971V8.61802H8.72688V10.1452H9.16319V8.61802H10.6904V8.18171H9.16319V6.65454Z" fill="#212121"/>
<path id="Vector_5" d="M2.3999 3.16394C2.3999 3.64524 2.79128 4.03661 3.27258 4.03661C3.75388 4.03661 4.14526 3.64524 4.14526 3.16394C4.14526 2.68264 3.75388 2.29126 3.27258 2.29126C2.79128 2.29126 2.3999 2.68264 2.3999 3.16394ZM3.70889 3.16394C3.70889 3.40445 3.51309 3.60025 3.27258 3.60025C3.03207 3.60025 2.83627 3.40445 2.83627 3.16394C2.83627 2.92342 3.03207 2.72763 3.27258 2.72763C3.51309 2.72763 3.70889 2.92342 3.70889 3.16394Z" fill="#212121"/>
</g>
</g>
</g>
</svg>
