<svg width="40" height="40" viewBox="0 0 40 40" fill="none" xmlns="http://www.w3.org/2000/svg">
<mask id="mask0_1_165" style="mask-type:luminance" maskUnits="userSpaceOnUse" x="0" y="0" width="40" height="40">
<path d="M20 40C31.0457 40 40 31.0457 40 20C40 8.95431 31.0457 0 20 0C8.95431 0 0 8.95431 0 20C0 31.0457 8.95431 40 20 40Z" fill="white"/>
</mask>
<g mask="url(#mask0_1_165)">
<path d="M40 0H0V40H40V0Z" fill="#212121"/>
<path fill-rule="evenodd" clip-rule="evenodd" d="M27.3076 17.068V16.8212C27.3076 15.4416 26.9008 14.1664 26.1316 13.1076C25.9948 12.8928 25.5364 12.3516 25.4768 12.292C24.0368 10.7972 22.148 10.4056 19.7876 10.4056L12.6924 10.4V29.6H16.98L17.006 23.9104L19.3324 23.9048L22.4336 29.582H27.088C27.088 29.582 24.1076 24.4168 23.4036 23.1776C25.7676 22.08 27.3076 19.7552 27.3076 17.068ZM23.0652 17.4428C23.0652 19.056 21.9276 20.3528 20.188 20.3528H16.9348V14.4376H20.188C21.9276 14.4376 23.0652 15.6484 23.0652 17.2624V17.4428Z" fill="#FFFAFA"/>
</g>
</svg>
