<svg width="23" height="23" viewBox="0 0 23 23" fill="none" xmlns="http://www.w3.org/2000/svg">
<path fill-rule="evenodd" clip-rule="evenodd" d="M3.54594 3.1361C2.11202 4.25137 1.5 6.08989 1.5 9.16667C1.5 11.314 1.79918 12.8595 2.46443 13.9731C3.11629 15.0643 4.15916 15.8049 5.80056 16.2611C6.01693 16.3213 6.16667 16.5183 6.16667 16.7429V20.7929L9.99425 16.9653C10.0913 16.8683 10.2239 16.8154 10.361 16.819C10.7268 16.8287 11.1063 16.8333 11.5 16.8333C15.5115 16.8333 17.9787 16.3448 19.4541 15.1972C20.888 14.0819 21.5 12.2434 21.5 9.16667C21.5 6.08988 20.888 4.25137 19.4541 3.1361C17.9787 1.98857 15.5115 1.5 11.5 1.5C7.48856 1.5 5.02134 1.98857 3.54594 3.1361ZM2.932 2.34675C4.69925 0.972217 7.48203 0.5 11.5 0.5C15.518 0.5 18.3008 0.972216 20.068 2.34675C21.8767 3.75354 22.5 5.99835 22.5 9.16667C22.5 12.335 21.8767 14.5798 20.068 15.9866C18.3008 17.3611 15.518 17.8333 11.5 17.8333C11.1748 17.8333 10.8582 17.8302 10.55 17.8238L6.02022 22.3536C5.87722 22.4966 5.66216 22.5393 5.47532 22.4619C5.28849 22.3845 5.16667 22.2022 5.16667 22V17.1157C3.53813 16.5978 2.36616 15.7585 1.60594 14.4859C0.803284 13.1423 0.5 11.3807 0.5 9.16667C0.5 5.99835 1.12327 3.75354 2.932 2.34675ZM6.33333 9.16667C6.33333 8.89052 6.55719 8.66667 6.83333 8.66667H6.845C7.12114 8.66667 7.345 8.89052 7.345 9.16667C7.345 9.44281 7.12114 9.66667 6.845 9.66667H6.83333C6.55719 9.66667 6.33333 9.44281 6.33333 9.16667ZM11 9.16667C11 8.89052 11.2239 8.66667 11.5 8.66667H11.5117C11.7878 8.66667 12.0117 8.89052 12.0117 9.16667C12.0117 9.44281 11.7878 9.66667 11.5117 9.66667H11.5C11.2239 9.66667 11 9.44281 11 9.16667ZM15.6667 9.16667C15.6667 8.89052 15.8905 8.66667 16.1667 8.66667H16.1783C16.4545 8.66667 16.6783 8.89052 16.6783 9.16667C16.6783 9.44281 16.4545 9.66667 16.1783 9.66667H16.1667C15.8905 9.66667 15.6667 9.44281 15.6667 9.16667Z" fill="#212121"/>
</svg>
