<svg width="21" height="21" viewBox="0 0 21 21" fill="none" xmlns="http://www.w3.org/2000/svg">
<path d="M20.1913 12.8505H17.9377V2.95516C17.9377 2.56223 17.6173 2.24254 17.2236 2.24254H15.0933V1.32457C15.0933 0.869883 14.7226 0.5 14.2669 0.5H13.9089C13.4532 0.5 13.0825 0.869883 13.0825 1.32457V2.2425H11.6792C11.5087 2.2425 11.3705 2.38043 11.3705 2.55059C11.3705 2.72074 11.5087 2.85867 11.6792 2.85867H13.0825V3.83578C13.0825 4.29043 13.4532 4.66031 13.9089 4.66031H14.2669C14.7225 4.66031 15.0932 4.29043 15.0932 3.83578V2.85863H17.2236C17.2769 2.85863 17.3203 2.90191 17.3203 2.95512V5.87277H7.39379C7.22327 5.87277 7.08505 6.0107 7.08505 6.18086C7.08505 6.35102 7.22327 6.48895 7.39379 6.48895H17.3203V12.8505H16.2068C16.0363 12.8505 15.898 12.9884 15.898 13.1586C15.898 13.3287 16.0363 13.4666 16.2068 13.4666H19.8622C19.7107 14.6028 18.7333 15.4822 17.554 15.4822H8.52219C9.14101 15.0033 9.56462 14.2846 9.65031 13.4666H14.5601C14.7306 13.4666 14.8689 13.3287 14.8689 13.1586C14.8689 12.9884 14.7306 12.8505 14.5601 12.8505H13.6864C13.6158 12.2526 13.2673 11.7384 12.7733 11.4409C13.3281 11.1068 13.7 10.4994 13.7 9.80691V8.81512C13.7 7.76356 12.8427 6.90801 11.7888 6.90801C10.735 6.90801 9.87763 7.76356 9.87763 8.81512V9.80691C9.87763 10.4994 10.2495 11.1067 10.8044 11.4409C10.3104 11.7383 9.96191 12.2525 9.89129 12.8505H9.35757C9.18705 12.8505 9.04882 12.9884 9.04882 13.1586C9.04882 13.7173 8.85004 14.2307 8.51941 14.6319V7.42484C8.51941 7.3027 8.44707 7.19207 8.33499 7.14285C8.22299 7.09371 8.09232 7.1152 8.00205 7.19773L6.3682 8.69227C6.2425 8.80723 6.234 9.00211 6.34921 9.12754C6.46442 9.25297 6.65972 9.26141 6.78542 9.14648L7.90195 8.1252V15.1595C7.55527 15.3642 7.1514 15.4821 6.72024 15.4821C5.43628 15.4821 4.39166 14.4398 4.39166 13.1586V6.48895H5.28698C5.4575 6.48895 5.59572 6.35102 5.59572 6.18086C5.59572 6.0107 5.4575 5.87277 5.28698 5.87277H4.3917V2.95516C4.3917 2.90195 4.43507 2.85867 4.48839 2.85867H5.36793H6.6843V3.83578C6.6843 4.29043 7.05498 4.66031 7.51065 4.66031H7.86864C8.3243 4.66031 8.69498 4.29043 8.69498 3.83578V2.85863H10.0327C10.2032 2.85863 10.3414 2.7207 10.3414 2.55055C10.3414 2.38039 10.2032 2.24246 10.0327 2.24246H8.69498V1.32457C8.69498 0.869883 8.32422 0.5 7.86864 0.5H7.51065C7.05498 0.5 6.6843 0.869883 6.6843 1.32457V2.2425H5.36793H4.48839H3.71881H2.86327H1.21415C0.820374 2.2425 0.5 2.56219 0.5 2.95512V19.7874C0.500039 20.1803 0.820374 20.5 1.21415 20.5H2.86323H4.10691H4.48835H5.75603H17.2236C17.6174 20.5 17.9378 20.1803 17.9378 19.7874V16.0725C19.3814 15.8841 20.5 14.6496 20.5 13.1585C20.5 12.9884 20.3618 12.8505 20.1913 12.8505ZM14.4758 3.83574C14.4758 3.94871 14.3801 4.04414 14.2669 4.04414H13.9089C13.7957 4.04414 13.7 3.94871 13.7 3.83574V2.55098C13.7 2.55086 13.7 2.55074 13.7 2.55059C13.7 2.55043 13.7 2.55035 13.7 2.55016V1.32457C13.7 1.2116 13.7957 1.11613 13.9089 1.11613H14.2669C14.3801 1.11613 14.4758 1.2116 14.4758 1.32457V3.83574ZM10.4952 9.80695V8.81516C10.4952 8.10336 11.0756 7.52422 11.7889 7.52422C12.5022 7.52422 13.0826 8.10336 13.0826 8.81516V9.80695C13.0826 10.5188 12.5022 11.0979 11.7889 11.0979C11.0756 11.0979 10.4952 10.5188 10.4952 9.80695ZM11.7889 11.7839C12.4255 11.7839 12.9559 12.2453 13.0626 12.8505H10.5151C10.6219 12.2453 11.1522 11.7839 11.7889 11.7839ZM7.3018 1.32457C7.3018 1.2116 7.39747 1.11613 7.51068 1.11613H7.86868C7.98189 1.11613 8.07756 1.2116 8.07756 1.32457V3.83578C8.07756 3.94875 7.98193 4.04418 7.86868 4.04418H7.51068C7.39747 4.04418 7.3018 3.94875 7.3018 3.83578V1.32457ZM1.21415 19.8839C1.16083 19.8839 1.11749 19.8406 1.11749 19.7874V6.48895H2.14912V19.7874C2.14912 19.8202 2.15213 19.8522 2.15644 19.8839H1.21415ZM2.14916 2.95516V5.87281H1.11749V2.95516C1.11749 2.90195 1.16083 2.85867 1.21415 2.85867H2.15644C2.15213 2.89027 2.14916 2.9223 2.14916 2.95516ZM2.86327 19.8839C2.80995 19.8839 2.76661 19.8406 2.76661 19.7874V6.48895H3.7742V19.7874C3.7742 19.8202 3.77722 19.8522 3.78152 19.8839H2.86327ZM3.77424 2.95516V5.87281H2.76665V2.95516C2.76665 2.90195 2.81003 2.85867 2.86334 2.85867H3.71885H3.7816C3.7773 2.89027 3.77424 2.9223 3.77424 2.95516ZM17.3203 19.7874C17.3203 19.8406 17.2769 19.8839 17.2236 19.8839H5.75603H4.48835C4.43503 19.8839 4.39166 19.8406 4.39166 19.7874V14.9562C4.92233 15.6391 5.74691 16.083 6.6746 16.0972C6.68223 16.0978 6.68979 16.0983 6.69758 16.0983H17.3203V19.7874Z" fill="#212121"/>
</svg>
