<svg width="23" height="21" viewBox="0 0 23 21" fill="none" xmlns="http://www.w3.org/2000/svg">
<path fill-rule="evenodd" clip-rule="evenodd" d="M2.22362 1.63649C3.42371 0.636826 4.98736 0.25 6.49576 0.25C8.66305 0.25 10.3137 1.66492 11.5002 3.20008C12.6847 1.66919 14.3391 0.25 16.5095 0.25C18.0165 0.25 19.5789 0.636915 20.7781 1.6367C22.0004 2.6558 22.75 4.23254 22.75 6.40339C22.75 7.5728 22.2755 8.8003 21.5819 9.9974C20.8819 11.2055 19.917 12.4532 18.8438 13.6791C17.1175 15.6509 15.0538 17.6286 13.261 19.3467C12.8295 19.7602 12.4137 20.1587 12.0221 20.5384C11.7311 20.8206 11.2686 20.8205 10.9777 20.5383C10.5825 20.1548 10.1626 19.7522 9.72666 19.3343C7.93762 17.6192 5.87958 15.6461 4.15724 13.6791C3.08389 12.4533 2.11871 11.2056 1.41855 9.99748C0.724755 8.80041 0.25 7.57287 0.25 6.40339C0.25 4.23233 1.00028 2.65552 2.22362 1.63649ZM3.18367 2.78902C2.35528 3.47905 1.75 4.60395 1.75 6.40339C1.75 7.18908 2.07825 8.14436 2.71633 9.24532C3.34804 10.3353 4.24362 11.5008 5.28577 12.691C6.96019 14.6032 8.9557 16.5167 10.742 18.2294C10.9996 18.4765 11.2528 18.7193 11.5001 18.9574C11.7434 18.7234 11.9923 18.4847 12.2455 18.2421C14.0357 16.5261 16.0369 14.6079 17.7152 12.691C18.7571 11.5008 19.6525 10.3353 20.284 9.2454C20.9219 8.14447 21.25 7.18915 21.25 6.40339C21.25 4.60374 20.6451 3.47878 19.8175 2.78881C18.9668 2.07953 17.784 1.75 16.5095 1.75C14.7501 1.75 13.2894 3.1416 12.126 4.90448C11.9871 5.11482 11.752 5.24137 11.5 5.24136C11.2479 5.24134 11.0128 5.11476 10.874 4.9044C9.70535 3.13321 8.24994 1.75 6.49576 1.75C5.21952 1.75 4.0353 2.07961 3.18367 2.78902Z" fill="#212121"/>
</svg>
