<svg width="13" height="13" viewBox="0 0 13 13" fill="none" xmlns="http://www.w3.org/2000/svg">
<path fill-rule="evenodd" clip-rule="evenodd" d="M2.40501 5.57639L1.88052 5.40463C1.51376 5.28453 1.19105 5.06034 0.960214 4.7578C0.72904 4.45482 0.602341 4.08894 0.602504 3.71057V0.464286C0.602504 0.457555 0.599896 0.444281 0.583876 0.429443C0.566824 0.413649 0.537574 0.4 0.501252 0.4C0.464931 0.4 0.43568 0.413649 0.418628 0.429443C0.402609 0.444281 0.4 0.457555 0.4 0.464286V3.71057C0.399904 4.14489 0.561584 4.57049 0.864846 4.91459C1.16872 5.25938 1.59668 5.50128 2.07932 5.59253L2.40501 5.65411V12.5357C2.40501 12.5424 2.40762 12.5557 2.42364 12.5706C2.44069 12.5864 2.46994 12.6 2.50626 12.6C2.54258 12.6 2.57183 12.5864 2.58888 12.5706C2.6049 12.5557 2.60751 12.5424 2.60751 12.5357V5.65411L2.9332 5.59253C3.41584 5.50128 3.84381 5.25938 4.14768 4.91459C4.45094 4.57049 4.61262 4.14498 4.61252 3.71066V0.464286C4.61252 0.457555 4.60991 0.444281 4.59389 0.429443C4.57684 0.413649 4.54759 0.4 4.51127 0.4C4.47495 0.4 4.4457 0.413649 4.42865 0.429443C4.41263 0.444281 4.41002 0.457555 4.41002 0.464286V3.71034L4.01002 3.71057C4.01018 3.99873 3.91385 4.27984 3.7343 4.51517C3.64305 4.63477 3.53259 4.73954 3.40751 4.82628C3.28648 4.91022 3.15176 4.97726 3.00751 5.0245V0.464286C3.00751 0.341149 2.9547 0.223057 2.8607 0.135986C2.7667 0.0489156 2.6392 0 2.50626 0C2.37332 0 2.24582 0.0489156 2.15182 0.135986C2.05782 0.223057 2.00501 0.341149 2.00501 0.464286V5.0245C1.86076 4.97726 1.72604 4.91022 1.60501 4.82628C1.47993 4.73954 1.36947 4.63477 1.27822 4.51517C1.09867 4.27984 1.00234 3.99873 1.0025 3.71057V0.464286C1.0025 0.341149 0.949694 0.223057 0.855691 0.135986C0.761688 0.0489156 0.634193 0 0.501252 0C0.368312 0 0.240817 0.0489156 0.146814 0.135986C0.0528105 0.223057 5.21984e-08 0.341149 5.21984e-08 0.464286V3.71057C-0.000117818 4.24573 0.19939 4.76449 0.564758 5.17906C0.930126 5.59363 1.43891 5.87854 2.00501 5.98557V12.5357C2.00501 12.6589 2.05782 12.7769 2.15182 12.864C2.24582 12.9511 2.37332 13 2.50626 13C2.6392 13 2.7667 12.9511 2.8607 12.864C2.9547 12.7769 3.00751 12.6589 3.00751 12.5357V5.98557C3.57361 5.87854 4.0824 5.59363 4.44776 5.17906C4.81313 4.76449 5.01264 4.24573 5.01252 3.71057V0.464286C5.01252 0.341149 4.95971 0.223057 4.86571 0.135986C4.7717 0.0489156 4.64421 0 4.51127 0C4.37833 0 4.25083 0.0489156 4.15683 0.135986C4.06283 0.223057 4.01002 0.341149 4.01002 0.464286V3.71057M8.92129 7.052V12.5357C8.92129 12.5424 8.92389 12.5557 8.93991 12.5706C8.95697 12.5864 8.98622 12.6 9.02254 12.6C9.05886 12.6 9.08811 12.5864 9.10516 12.5706C9.12118 12.5557 9.12379 12.5424 9.12379 12.5357V7.052L9.44249 6.98585C10.6295 6.73946 11.6301 5.42127 11.6301 3.71429C11.6301 1.8001 10.3881 0.4 9.02254 0.4C7.657 0.4 6.41503 1.8001 6.41503 3.71429C6.41503 5.42127 7.41559 6.73946 8.60258 6.98585L8.92129 7.052ZM9.52379 7.3775C10.9463 7.08221 12.0301 5.55471 12.0301 3.71429C12.0301 1.66214 10.6837 0 9.02254 0C7.36139 0 6.01503 1.66214 6.01503 3.71429C6.01503 5.55471 7.09873 7.08221 8.52129 7.3775V12.5357C8.52129 12.6589 8.5741 12.7769 8.6681 12.864C8.7621 12.9511 8.8896 13 9.02254 13C9.15548 13 9.28297 12.9511 9.37698 12.864C9.47098 12.7769 9.52379 12.6589 9.52379 12.5357V7.3775ZM10.7335 5.94196C10.3091 6.51018 9.70007 6.9 9.02254 6.9C8.345 6.9 7.73601 6.51018 7.31159 5.94196C6.88416 5.3697 6.61753 4.58778 6.61753 3.71429C6.61753 2.84079 6.88416 2.05887 7.31159 1.48661C7.73601 0.91839 8.345 0.528571 9.02254 0.528571C9.70007 0.528571 10.3091 0.91839 10.7335 1.48661C11.1609 2.05887 11.4275 2.84079 11.4275 3.71429C11.4275 4.58778 11.1609 5.3697 10.7335 5.94196ZM11.0275 3.71429C11.0275 5.30214 10.0571 6.5 9.02254 6.5C7.98795 6.5 7.01753 5.30214 7.01753 3.71429C7.01753 2.12643 7.98795 0.928571 9.02254 0.928571C10.0571 0.928571 11.0275 2.12643 11.0275 3.71429Z" fill="#212121"/>
</svg>
