<svg width="11" height="14" viewBox="0 0 11 14" fill="none" xmlns="http://www.w3.org/2000/svg">
<path fill-rule="evenodd" clip-rule="evenodd" d="M9.64012 8.13226C9.73256 7.98212 9.82249 7.8212 9.9074 7.65167C10.2602 6.94734 10.5263 6.09452 10.5263 5.25C10.5263 2.35047 8.16994 0 5.26315 0C2.35635 0 0 2.35047 0 5.25C0 6.49206 0.548683 7.58428 1.15592 8.53125L4.90525 13.8154C4.95504 13.8856 5.02364 13.9384 5.10156 13.9692C5.15234 13.9893 5.20708 14 5.26315 14C5.31922 14 5.37395 13.9893 5.42473 13.9692C5.50265 13.9384 5.57125 13.8856 5.62104 13.8154L9.37037 8.53125C9.46113 8.40938 9.55178 8.27575 9.64012 8.13226ZM8.7888 8.53125H8.79099C8.84884 8.44659 8.91152 8.35318 8.97705 8.25216C8.97906 8.24906 8.98107 8.24595 8.98309 8.24284C9.05625 8.12981 9.13286 8.00737 9.21014 7.87708C9.29519 7.7337 9.38107 7.5808 9.46408 7.42044C9.79916 6.7732 10.0877 6.00452 10.0877 5.25C10.0877 2.59219 7.92761 0.4375 5.26315 0.4375C2.59868 0.4375 0.438596 2.59219 0.438596 5.25C0.438596 6.37587 1.03785 7.4795 1.54734 8.25352C1.55148 8.2598 1.55561 8.26606 1.55974 8.2723C1.61998 8.36346 1.67889 8.44995 1.7353 8.53125H1.7375L5.26315 13.3438L8.7888 8.53125Z" fill="#212121"/>
<path d="M5.26317 3.0625C4.05199 3.0625 3.07019 4.04206 3.07019 5.25C3.07019 6.45794 4.05199 7.4375 5.26317 7.4375C6.47435 7.4375 7.45615 6.45794 7.45615 5.25C7.45615 4.04206 6.47435 3.0625 5.26317 3.0625ZM5.26317 7C4.29431 7 3.50879 6.21644 3.50879 5.25C3.50879 4.28356 4.29431 3.5 5.26317 3.5C6.23203 3.5 7.01755 4.28356 7.01755 5.25C7.01755 6.21644 6.23203 7 5.26317 7Z" fill="#212121"/>
<path d="M5.26316 2.1875C3.56755 2.1875 2.19299 3.55862 2.19299 5.25C2.19299 6.94137 3.56755 8.3125 5.26316 8.3125C6.95877 8.3125 8.33333 6.94137 8.33333 5.25C8.33333 3.55862 6.95877 2.1875 5.26316 2.1875ZM5.26316 7.875C3.80988 7.875 2.63159 6.69966 2.63159 5.25C2.63159 3.80034 3.80988 2.625 5.26316 2.625C6.71645 2.625 7.89474 3.80034 7.89474 5.25C7.89474 6.69966 6.71645 7.875 5.26316 7.875Z" fill="#212121"/>
</svg>
