<svg width="13" height="13" viewBox="0 0 13 13" fill="none" xmlns="http://www.w3.org/2000/svg">
<g opacity="0.9">
<path d="M12.381 6.5C12.381 3.24363 9.74452 0.603949 6.49245 0.603949C3.24039 0.603949 0.603949 3.24363 0.603949 6.5C0.603949 9.75637 3.24039 12.3961 6.49245 12.3961C9.74452 12.3961 12.381 9.75637 12.381 6.5ZM12.9849 6.5C12.9849 10.0898 10.0782 13 6.49245 13C2.90667 13 0 10.0898 0 6.5C0 2.91025 2.90667 0 6.49245 0C10.0782 0 12.9849 2.91025 12.9849 6.5Z" fill="#212121"/>
<path d="M9.69767 6.5C9.69767 3.22159 8.21643 0.603949 6.49236 0.603949C4.76829 0.603949 3.28705 3.22159 3.28705 6.5C3.28705 9.77841 4.76829 12.3961 6.49236 12.3961C8.21643 12.3961 9.69767 9.77841 9.69767 6.5ZM10.3016 6.5C10.3016 10.0677 8.64231 13 6.49236 13C4.34242 13 2.68311 10.0677 2.68311 6.5C2.68311 2.93232 4.34242 0 6.49236 0C8.64231 0 10.3016 2.93232 10.3016 6.5Z" fill="#212121"/>
<path d="M0.349826 6.80195H12.6255C12.7923 6.80195 12.9275 6.66675 12.9275 6.49997C12.9275 6.33319 12.7923 6.198 12.6255 6.198H0.349826C0.183047 6.198 0.0478516 6.33319 0.0478516 6.49997C0.0478516 6.66675 0.183047 6.80195 0.349826 6.80195Z" fill="#212121"/>
<path d="M6.19043 0.305301V12.6947C6.19043 12.8615 6.32563 12.9967 6.4924 12.9967C6.65918 12.9967 6.79438 12.8615 6.79438 12.6947V0.305301C6.79438 0.138522 6.65918 0.00332642 6.4924 0.00332642C6.32563 0.00332642 6.19043 0.138522 6.19043 0.305301Z" fill="#212121"/>
</g>
</svg>
