<svg width="21" height="23" viewBox="0 0 21 23" fill="none" xmlns="http://www.w3.org/2000/svg">
<path d="M17.6231 6.59476C15.903 4.87468 13.616 3.92741 11.1835 3.92741C10.4664 3.92741 9.75246 4.01104 9.06132 4.17602C8.89156 4.21655 8.78681 4.38701 8.82734 4.55673C8.86787 4.72653 9.03833 4.83132 9.20809 4.79076C9.85118 4.63721 10.5158 4.55939 11.1835 4.55939C15.8566 4.55939 19.6584 8.36124 19.6584 13.0343C19.6584 17.6486 15.9515 21.413 11.3594 21.507C11.3562 21.5069 11.353 21.5065 11.3498 21.5065C10.5989 21.5065 9.86739 21.4228 9.16337 21.2653C5.46261 20.3567 2.70867 17.0113 2.70867 13.0343C2.70867 9.94644 4.3901 7.10088 7.09678 5.608C7.24958 5.52371 7.30515 5.3315 7.22086 5.1787C7.13656 5.0259 6.94435 4.97037 6.79155 5.05462C3.88327 6.65857 2.0766 9.71624 2.0766 13.0343C2.0766 14.4016 2.37593 15.7229 2.94348 16.9233C1.93074 15.3594 1.3419 13.4966 1.3419 11.4987C1.3419 6.08611 5.66109 1.66329 11.0337 1.49582V2.8911C11.0337 3.06564 11.1752 3.20709 11.3497 3.20709C11.5243 3.20709 11.6657 3.06564 11.6657 2.8911V1.17488C11.6657 1.00034 11.5243 0.858887 11.3497 0.858887C8.50777 0.858887 5.83584 1.96565 3.82628 3.97521C1.81668 5.98477 0.709961 8.6567 0.709961 11.4987C0.709961 14.3407 1.81673 17.0126 3.82628 19.0221C5.27847 20.4743 7.07658 21.4547 9.03468 21.887C9.73009 22.0545 10.4501 22.1412 11.1835 22.1412C13.616 22.1412 15.903 21.1939 17.6231 19.4738C19.3431 17.7537 20.2904 15.4668 20.2904 13.0342C20.2904 10.6017 19.3431 8.31485 17.6231 6.59476Z" fill="#212121"/>
<path d="M11.1456 5.55225C9.67874 5.55225 8.48535 6.74564 8.48535 8.21254C8.48535 9.67935 9.67874 10.8728 11.1456 10.8728C12.6125 10.8728 13.8058 9.6794 13.8058 8.21254C13.8058 6.74559 12.6125 5.55225 11.1456 5.55225ZM11.1456 6.18423C11.883 6.18423 12.5297 6.57999 12.8847 7.17012C11.7461 6.83197 10.543 6.83234 9.40581 7.17137C9.76067 6.58053 10.4076 6.18423 11.1456 6.18423ZM11.1456 10.2407C10.0272 10.2407 9.11738 9.33086 9.11738 8.2125C9.11738 8.11747 9.12444 8.02411 9.13712 7.93254C10.4325 7.42226 11.8562 7.42093 13.1537 7.93013C13.1667 8.02249 13.1738 8.11664 13.1738 8.2125C13.1738 9.33086 12.264 10.2407 11.1456 10.2407Z" fill="#212121"/>
<path d="M11.1456 15.136C9.67874 15.136 8.48535 16.3294 8.48535 17.7962C8.48535 19.2631 9.67874 20.4565 11.1456 20.4565C12.6125 20.4565 13.8058 19.2631 13.8058 17.7962C13.8058 16.3294 12.6125 15.136 11.1456 15.136ZM11.1456 19.8245C10.4373 19.8245 9.81292 19.4592 9.45008 18.9074C10.0057 19.0681 10.577 19.1487 11.1484 19.1487C11.7176 19.1487 12.2867 19.069 12.8396 18.9098C12.4766 19.4602 11.8529 19.8245 11.1456 19.8245ZM9.20446 18.1604C9.18584 18.1534 9.16693 18.1484 9.14801 18.145C9.12827 18.0316 9.11738 17.9152 9.11738 17.7962C9.11738 16.6779 10.0272 15.768 11.1456 15.768C12.264 15.768 13.1738 16.6779 13.1738 17.7962C13.1738 17.9135 13.1633 18.0283 13.1441 18.1401C11.8764 18.6348 10.478 18.6423 9.20446 18.1604Z" fill="#212121"/>
<path d="M6.42002 10.4109C4.95316 10.4109 3.75977 11.6043 3.75977 13.0711C3.75977 14.538 4.95316 15.7314 6.42002 15.7314C7.88687 15.7314 9.08026 14.538 9.08026 13.0711C9.08026 11.6042 7.88687 10.4109 6.42002 10.4109ZM4.39179 13.0711C4.39179 12.388 4.7316 11.7831 5.25073 11.4154C4.95041 12.5077 4.9591 13.6568 5.2773 14.7457C4.74308 14.38 4.39179 13.7659 4.39179 13.0711ZM6.42002 15.0994C6.29502 15.0994 6.17277 15.0874 6.05398 15.0656C6.05202 15.0597 6.05032 15.0537 6.04799 15.0478C5.54391 13.7699 5.53613 12.3642 6.02388 11.0819C6.15207 11.0565 6.28446 11.0428 6.42006 11.0428C7.53842 11.0428 8.44828 11.9527 8.44828 13.0711C8.44828 14.1894 7.53838 15.0994 6.42002 15.0994Z" fill="#212121"/>
<path d="M16.1828 10.4109C14.7159 10.4109 13.5225 11.6043 13.5225 13.0711C13.5225 14.538 14.7159 15.7314 16.1828 15.7314C17.6496 15.7314 18.843 14.538 18.843 13.0711C18.843 11.6043 17.6496 10.4109 16.1828 10.4109ZM16.2344 15.0802C16.232 15.0862 16.2302 15.0922 16.2282 15.0982C16.213 15.0986 16.198 15.0994 16.1828 15.0994C15.0644 15.0994 14.1545 14.1895 14.1545 13.0711C14.1545 11.9527 15.0643 11.0429 16.1827 11.0429C16.212 11.0429 16.241 11.0439 16.27 11.0451C16.2725 11.072 16.2782 11.0989 16.288 11.1254C16.7629 12.4077 16.7439 13.8122 16.2344 15.0802ZM16.9555 14.9461C17.3551 13.7328 17.3652 12.4291 16.9835 11.208C17.7047 11.5191 18.211 12.237 18.211 13.0711C18.211 13.916 17.6916 14.6415 16.9555 14.9461Z" fill="#212121"/>
<path d="M11.1455 11.7942C10.4616 11.7942 9.90527 12.3505 9.90527 13.0344C9.90527 13.7182 10.4616 14.2746 11.1455 14.2746C11.8293 14.2745 12.3856 13.7182 12.3856 13.0344C12.3856 12.3505 11.8293 11.7942 11.1455 11.7942ZM11.1455 13.6426C10.8102 13.6426 10.5373 13.3697 10.5373 13.0343C10.5373 12.699 10.8101 12.4261 11.1455 12.4261C11.4809 12.4261 11.7536 12.699 11.7536 13.0343C11.7536 13.3697 11.4808 13.6426 11.1455 13.6426Z" fill="#212121"/>
</svg>
