<svg width="13" height="13" viewBox="0 0 13 13" fill="none" xmlns="http://www.w3.org/2000/svg">
<path fill-rule="evenodd" clip-rule="evenodd" d="M0.7546 2.00644C0.695444 1.33703 1.21402 0.75 1.89413 0.75H3.95255C4.51689 0.75 5.01556 1.1675 5.07661 1.74306C5.12257 2.17649 5.20829 2.59797 5.33002 3.00378C5.51124 3.60792 5.34014 4.25985 4.89663 4.70336C4.89663 4.70336 4.89663 4.70337 4.89663 4.70337L4.14902 5.451C4.95417 6.86802 6.13197 8.04582 7.54899 8.85097L8.2966 8.10336L8.29661 8.10336C8.74015 7.65985 9.39205 7.48878 9.99621 7.67C10.402 7.79173 10.8235 7.87746 11.2569 7.92342C11.5469 7.95415 11.8027 8.09775 11.9818 8.3398C12.1583 8.57849 12.25 8.89803 12.25 9.27232V11.1074C12.25 11.788 11.6624 12.3045 10.9936 12.2454C5.56132 11.7654 1.23462 7.43867 0.7546 2.00644ZM1.89413 1.25C1.51559 1.25 1.21863 1.5773 1.25266 1.96242L1.25266 1.96243C1.71135 7.15328 5.84671 11.2886 11.0376 11.7473L11.0156 11.9964L11.0376 11.7473C11.4233 11.7814 11.75 11.4853 11.75 11.1074V9.27232C11.75 8.97663 11.6776 8.76941 11.5798 8.63714C11.4844 8.50823 11.3555 8.43667 11.2042 8.42063L11.2042 8.42063C10.7397 8.37137 10.2878 8.27948 9.85256 8.14892C9.42793 8.02155 8.96613 8.14096 8.65015 8.45692L7.76931 9.33776C7.6911 9.41596 7.57081 9.43349 7.47354 9.38085C5.84408 8.49897 4.50103 7.15591 3.61914 5.52646C3.5665 5.42919 3.58403 5.3089 3.66223 5.23069L4.54307 4.34982L4.54308 4.34981C4.85903 4.03386 4.97847 3.57203 4.8511 3.14744C4.72055 2.71221 4.62865 2.26029 4.57939 1.79578L4.828 1.76942L4.57939 1.79579C4.57939 1.79579 4.57939 1.79578 4.57939 1.79578C4.54683 1.48876 4.27572 1.25 3.95255 1.25H1.89413Z" fill="black"/>
</svg>
