<svg width="11" height="13" viewBox="0 0 11 13" fill="none" xmlns="http://www.w3.org/2000/svg">
<path fill-rule="evenodd" clip-rule="evenodd" d="M1.75557 7H0.502441V7.3H1.75557V9.6H0.502441V9.9H1.75557V12.5H2.0087V9.9H5.14153V9.6H2.0087V7.3H6.26809C8.04296 7.3 9.52748 5.78683 9.52748 3.9C9.52748 2.01317 8.04296 0.5 6.26809 0.5H1.75557V7ZM5.64153 9.1V10.4H2.5087V13H1.25557V10.4H0.00244141V9.1H1.25557V7.8H0.00244141V6.5H1.25557V0H6.26809C8.33625 0 10.0275 1.75449 10.0275 3.9C10.0275 6.04551 8.33625 7.8 6.26809 7.8H2.5087V9.1H5.64153ZM2.0087 0.8H6.26809C7.95157 0.8 9.27435 2.19913 9.27435 3.9C9.27435 5.60087 7.95157 7 6.26809 7H2.0087V0.8ZM2.5087 1.3V6.5H6.26809C7.65828 6.5 8.77435 5.34219 8.77435 3.9C8.77435 2.45781 7.65828 1.3 6.26809 1.3H2.5087Z" fill="#212121"/>
</svg>
