<svg width="26" height="23" viewBox="0 0 26 23" fill="none" xmlns="http://www.w3.org/2000/svg">
<path fill-rule="evenodd" clip-rule="evenodd" d="M7.62459 17.0142C9.57251 18.8178 12.2635 19.9333 15.2359 19.9333C21.1808 19.9333 26 15.4711 26 9.96667C26 4.46223 21.1808 0 15.2359 0C9.2911 0 4.47187 4.46223 4.47187 9.96667C4.47187 12.1709 5.24468 14.208 6.55311 15.8584L-3.57628e-07 21.9261L1.15986 23L7.62459 17.0142ZM6.09688 9.96667C6.09688 14.5971 10.1595 18.4 15.2359 18.4C20.3124 18.4 24.375 14.5971 24.375 9.96667C24.375 5.33625 20.3124 1.53333 15.2359 1.53333C10.1595 1.53333 6.09688 5.33625 6.09688 9.96667Z" fill="#212121"/>
</svg>
