<svg width="13" height="13" viewBox="0 0 13 13" fill="none" xmlns="http://www.w3.org/2000/svg">
<path fill-rule="evenodd" clip-rule="evenodd" d="M6.5 12.3158C9.71197 12.3158 12.3158 9.71197 12.3158 6.5C12.3158 3.28803 9.71197 0.684211 6.5 0.684211C3.28803 0.684211 0.684211 3.28803 0.684211 6.5C0.684211 9.71197 3.28803 12.3158 6.5 12.3158ZM6.5 13C10.0899 13 13 10.0899 13 6.5C13 2.91015 10.0899 0 6.5 0C2.91015 0 0 2.91015 0 6.5C0 10.0899 2.91015 13 6.5 13Z" fill="#212121"/>
<path fill-rule="evenodd" clip-rule="evenodd" d="M6.33333 2C6.14924 2 6 2.16789 6 2.375V7.625C6 7.83211 6.14924 8 6.33333 8H9.66667C9.85076 8 10 7.83211 10 7.625C10 7.41789 9.85076 7.25 9.66667 7.25H6.66667V2.375C6.66667 2.16789 6.51743 2 6.33333 2Z" fill="#212121"/>
</svg>
