<svg width="20" height="22" viewBox="0 0 20 22" fill="none" xmlns="http://www.w3.org/2000/svg">
<path fill-rule="evenodd" clip-rule="evenodd" d="M9.5 1.75C6.87665 1.75 4.75 3.87665 4.75 6.5C4.75 9.12335 6.87665 11.25 9.5 11.25C12.1234 11.25 14.25 9.12335 14.25 6.5C14.25 3.87665 12.1234 1.75 9.5 1.75ZM3.25 6.5C3.25 3.04822 6.04822 0.25 9.5 0.25C12.9518 0.25 15.75 3.04822 15.75 6.5C15.75 9.95178 12.9518 12.75 9.5 12.75C6.04822 12.75 3.25 9.95178 3.25 6.5Z" fill="#020202"/>
<path fill-rule="evenodd" clip-rule="evenodd" d="M9.99986 12.75C8.11159 12.7498 6.28291 13.4111 4.83148 14.6189C3.3804 15.8265 2.39805 17.5041 2.05498 19.3604C2.05489 19.3609 2.0548 19.3614 2.05472 19.3619L1.73811 21.1161L0.261963 20.8496L0.579639 19.0895C0.986121 16.8878 2.15103 14.8981 3.87198 13.4659C5.59294 12.0338 7.76121 11.2497 10.0001 11.25C12.2417 11.2505 14.4122 12.0372 16.1335 13.4731C17.8548 14.9089 19.0181 16.903 19.4207 19.1081L19.421 19.1096L19.7381 20.8668L18.262 21.1332L17.9451 19.3776C17.9451 19.3774 17.9451 19.3777 17.9451 19.3776C17.6055 17.5179 16.6243 15.8359 15.1727 14.625C13.7209 13.414 11.8904 12.7505 9.99986 12.75Z" fill="#020202"/>
</svg>
