<svg width="36" height="36" viewBox="0 0 36 36" fill="none" xmlns="http://www.w3.org/2000/svg">
<path d="M18 0C8.05887 0 0 8.05887 0 18C0 27.9411 8.05887 36 18 36C27.9411 36 36 27.9411 36 18C36 8.05887 27.9411 0 18 0ZM27.588 24.1102H25.3039C25.0565 24.1104 24.8123 24.055 24.5893 23.9478C24.3663 23.8407 24.1703 23.6847 24.0159 23.4914C23.331 22.6314 21.9815 21.1065 20.5646 20.4516C20.4826 20.4132 20.3922 20.3961 20.3017 20.4018C20.2113 20.4076 20.1238 20.4361 20.0473 20.4847C19.9708 20.5332 19.9078 20.6003 19.864 20.6796C19.8203 20.759 19.7973 20.8481 19.7971 20.9387V23.1977C19.7971 23.3175 19.7736 23.4362 19.7277 23.5469C19.6819 23.6576 19.6147 23.7582 19.53 23.8429C19.4453 23.9276 19.3447 23.9948 19.234 24.0407C19.1233 24.0866 19.0047 24.1102 18.8849 24.1102H17.8287C16.4552 24.1102 13.4975 23.2741 11.1407 19.8409C9.13254 16.9159 8.23739 14.649 7.71539 12.811C7.68504 12.7033 7.68007 12.59 7.70087 12.48C7.72167 12.3701 7.76768 12.2664 7.83527 12.1772C7.90287 12.088 7.99021 12.0157 8.09046 11.9659C8.1907 11.9162 8.30112 11.8903 8.41303 11.8904H10.7236C10.9542 11.8902 11.1786 11.9644 11.3636 12.102C11.5485 12.2396 11.6841 12.4332 11.7502 12.6541C12.1799 14.0912 13.2928 17.1913 15.26 18.7351C15.32 18.7824 15.3921 18.8118 15.468 18.8201C15.5439 18.8283 15.6206 18.8151 15.6894 18.7817C15.7581 18.7485 15.8161 18.6965 15.8567 18.6318C15.8973 18.5671 15.9188 18.4923 15.9189 18.4159V14.7972C15.9189 14.082 15.609 13.3665 15.1252 12.8074C15.0555 12.7272 15.0103 12.6286 14.9951 12.5234C14.9798 12.4183 14.9952 12.3109 15.0392 12.2142C15.0833 12.1176 15.1543 12.0356 15.2436 11.9781C15.333 11.9206 15.437 11.8901 15.5433 11.8901H19.1057C19.2892 11.8901 19.4651 11.9629 19.5948 12.0926C19.7246 12.2223 19.7974 12.3983 19.7975 12.5817V17.4561C19.7975 17.5267 19.8169 17.5959 19.8536 17.6561C19.8903 17.7164 19.9429 17.7654 20.0056 17.7977C20.0683 17.8301 20.1388 17.8446 20.2091 17.8396C20.2795 17.8346 20.3472 17.8103 20.4047 17.7694C21.0586 17.304 21.6186 16.6163 22.1337 15.8434C22.782 14.8711 23.5731 13.2639 23.97 12.4298C24.0468 12.2682 24.1678 12.1317 24.3191 12.0361C24.4704 11.9406 24.6456 11.8898 24.8245 11.8898H27.3445C27.4498 11.8898 27.5533 11.9166 27.6452 11.9678C27.7372 12.0189 27.8145 12.0927 27.87 12.1822C27.9254 12.2716 27.9571 12.3737 27.962 12.4788C27.9669 12.584 27.9449 12.6886 27.8981 12.7828C27.2622 14.0583 26.0236 16.3981 24.8581 17.7709C24.6913 17.9683 24.6096 18.2239 24.631 18.4815C24.6524 18.7391 24.7751 18.9776 24.9723 19.1448C25.732 19.794 26.918 20.994 28.1967 22.993C28.2673 23.1024 28.307 23.2288 28.3118 23.3589C28.3166 23.489 28.2863 23.6179 28.224 23.7322C28.1617 23.8466 28.0698 23.942 27.9579 24.0085C27.846 24.075 27.7182 24.1101 27.588 24.1102Z" fill="#212121"/>
</svg>
